HIERARCHY
ROOT Hips
{
	OFFSET 0.000000 0.000000 0.000000
	CHANNELS 6 Xposition Yposition Zposition Zrotation Yrotation Xrotation 
	JOINT LHipJoint
	{
		OFFSET 0.000000 0.000000 0.000000
		CHANNELS 3 Zrotation Yrotation Xrotation
		JOINT LeftUpLeg
		{
			OFFSET 1.363060 -1.794630 0.839290
			CHANNELS 3 Zrotation Yrotation Xrotation
			JOINT LeftLeg
			{
				OFFSET 2.448110 -6.726130 0.000000
				CHANNELS 3 Zrotation Yrotation Xrotation
				JOINT LeftFoot
				{
					OFFSET 2.562200 -7.039590 0.000000
					CHANNELS 3 Zrotation Yrotation Xrotation
					JOINT LeftToeBase
					{
						OFFSET 0.157640 -0.433110 2.322550
						CHANNELS 3 Zrotation Yrotation Xrotation
						End Site
						{
							OFFSET 0.000000 0.000000 0.000000
						}
					}
				}
			}
		}
	}
	JOINT RHipJoint
	{
		OFFSET 0.000000 0.000000 0.000000
		CHANNELS 3 Zrotation Yrotation Xrotation
		JOINT RightUpLeg
		{
			OFFSET -1.305520 -1.794630 0.839290
			CHANNELS 3 Zrotation Yrotation Xrotation
			JOINT RightLeg
			{
				OFFSET -2.542530 -6.985550 0.000000
				CHANNELS 3 Zrotation Yrotation Xrotation
				JOINT RightFoot
				{
					OFFSET -2.568260 -7.056230 0.000000
					CHANNELS 3 Zrotation Yrotation Xrotation
					JOINT RightToeBase
					{
						OFFSET -0.164730 -0.452590 2.363150
						CHANNELS 3 Zrotation Yrotation Xrotation
						End Site
						{
							OFFSET 0.000000 0.000000 0.000000
						}
					}
				}
			}
		}
	}
	JOINT LowerBack
	{
		OFFSET 0.000000 0.000000 0.000000
		CHANNELS 3 Zrotation Yrotation Xrotation
		JOINT Spine
		{
			OFFSET 0.028270 2.035590 -0.193380
			CHANNELS 3 Zrotation Yrotation Xrotation
			JOINT Spine1
			{
				OFFSET 0.056720 2.048850 -0.042750
				CHANNELS 3 Zrotation Yrotation Xrotation
				JOINT Neck
				{
					OFFSET 0.000000 0.000000 0.000000
					CHANNELS 3 Zrotation Yrotation Xrotation
					JOINT Neck1
					{
						OFFSET -0.054170 1.746240 0.172020
						CHANNELS 3 Zrotation Yrotation Xrotation
						JOINT Head
						{
							OFFSET 0.104070 1.761360 -0.123970
							CHANNELS 3 Zrotation Yrotation Xrotation
							End Site
							{
								OFFSET 0.000000 0.000000 0.000000
							}
						}
					}
				}
				JOINT LeftShoulder
				{
					OFFSET 0.000000 0.000000 0.000000
					CHANNELS 3 Zrotation Yrotation Xrotation
					JOINT LeftArm
					{
						OFFSET 3.362410 1.200890 -0.311210
						CHANNELS 3 Zrotation Yrotation Xrotation
						JOINT LeftForeArm
						{
							OFFSET 4.983000 -0.000000 -0.000000
							CHANNELS 3 Zrotation Yrotation Xrotation
							JOINT LeftHand
							{
								OFFSET 3.483560 -0.000000 -0.000000
								CHANNELS 3 Zrotation Yrotation Xrotation
								JOINT LeftFingerBase
								{
									OFFSET 0.000000 0.000000 0.000000
									CHANNELS 3 Zrotation Yrotation Xrotation
									JOINT LeftHandIndex1
									{
										OFFSET 0.715260 -0.000000 -0.000000
										CHANNELS 3 Zrotation Yrotation Xrotation
										End Site
										{
											OFFSET 0.000000 0.000000 0.000000
										}
									}
								}
								JOINT LThumb
								{
									OFFSET 0.000000 0.000000 0.000000
									CHANNELS 3 Zrotation Yrotation Xrotation
									End Site
									{
										OFFSET 0.000000 0.000000 0.000000
									}
								}
							}
						}
					}
				}
				JOINT RightShoulder
				{
					OFFSET 0.000000 0.000000 0.000000
					CHANNELS 3 Zrotation Yrotation Xrotation
					JOINT RightArm
					{
						OFFSET -3.136600 1.374050 -0.404650
						CHANNELS 3 Zrotation Yrotation Xrotation
						JOINT RightForeArm
						{
							OFFSET -5.241900 -0.000000 -0.000000
							CHANNELS 3 Zrotation Yrotation Xrotation
							JOINT RightHand
							{
								OFFSET -3.444170 -0.000000 -0.000000
								CHANNELS 3 Zrotation Yrotation Xrotation
								JOINT RightFingerBase
								{
									OFFSET 0.000000 0.000000 0.000000
									CHANNELS 3 Zrotation Yrotation Xrotation
									JOINT RightHandIndex1
									{
										OFFSET -0.622530 -0.000000 -0.000000
										CHANNELS 3 Zrotation Yrotation Xrotation
										End Site
										{
											OFFSET 0.000000 0.000000 0.000000
										}
									}
								}
								JOINT RThumb
								{
									OFFSET 0.000000 0.000000 0.000000
									CHANNELS 3 Zrotation Yrotation Xrotation
									End Site
									{
										OFFSET 0.000000 0.000000 0.000000
									}
								}
							}
						}
					}
				}
			}
		}
	}
}
MOTION
Frames: 4
Frame Time: 0.008333
0.509262 17.981565 -19.311850 -6.325882 -4.763109 1.703220 -0.528692 4.017362 2.502684 -9.315354 -6.570367 -31.398037 2.079729 11.265025 33.181463 -1.388706 7.579057 11.137927 0.222200 -3.034100 -8.373600 2.385013 -5.036939 5.398938 28.527387 11.251613 -2.607361 -0.681384 -5.426591 22.758301 1.487880 -5.760366 -1.568590 -0.020000 -0.913400 2.510700 5.058366 0.975520 7.141040 4.488227 2.062260 2.940797 -1.460032 0.844539 -9.326887 -5.611829 -3.631333 -16.265325 3.750483 -3.853934 12.984034 0.029600 -1.679400 7.630200 -7.141394 2.796097 -1.232301 -82.519835 5.762215 16.667452 11.950389 -20.378286 -2.227696 -0.364073 -0.845282 -7.095735 23.577962 20.428075 9.172200 -7.125000 0.000000 0.000000 -4.807100 52.945600 -0.941500 11.034561 -1.766001 -2.535295 71.931649 3.026870 22.840230 -16.726913 30.767044 -5.470382 1.023804 -0.067652 -5.535027 -19.419660 20.834602 -7.561200 7.125000 0.000000 0.000000 5.183300 -7.909500 4.439400
0.511781 17.976314 -19.220757 -6.426633 -4.915130 1.806783 -0.603588 3.991227 2.467162 -9.027777 -6.684704 -31.319556 1.739499 10.853030 31.738418 -1.409769 7.819393 11.676167 0.235428 -3.121451 -8.617121 2.411265 -5.047261 5.435101 28.578387 11.297952 -2.199302 -0.632914 -5.327582 22.469995 1.561641 -5.964430 -1.584066 -0.021714 -0.950461 2.612618 5.219821 1.062882 7.049665 4.424589 2.184836 2.992007 -1.596958 0.904933 -9.217803 -5.543409 -3.678546 -16.487380 3.753568 -3.909557 13.050710 0.012462 -1.699055 7.685631 -7.144720 2.805523 -1.231186 -82.446903 5.586780 16.481150 11.721958 -20.029775 -2.145414 -0.372644 -0.832841 -6.833829 23.564303 20.002598 8.990429 -7.125000 0.000000 0.000000 -4.691257 52.481051 -0.866467 11.024650 -1.752367 -2.528565 72.016759 3.195117 22.875909 -16.915026 30.983706 -5.570924 1.021072 -0.052738 -5.637243 -19.572196 20.586082 -7.530566 7.125000 0.000000 0.000000 5.066654 -8.160198 4.314024
0.514364 17.974279 -19.129366 -6.522235 -5.051691 1.910967 -0.680203 3.970054 2.436942 -8.730467 -6.829857 -31.192979 1.407473 10.442743 30.323237 -1.430056 8.035493 12.139557 0.229630 -2.940415 -8.119649 2.437976 -5.058791 5.471868 28.618979 11.327132 -1.796641 -0.582856 -5.227068 22.175823 1.627839 -6.147423 -1.599814 -0.023008 -0.978517 2.689762 5.369569 1.143750 6.944590 4.367905 2.296318 3.055673 -1.720277 0.961387 -9.094527 -5.485070 -3.725582 -16.724772 3.762369 -3.961526 13.102145 -0.001326 -1.717444 7.739248 -7.149038 2.814391 -1.230108 -82.386403 5.390665 16.278277 11.491360 -19.676383 -2.062607 -0.381119 -0.820181 -6.549994 23.535404 19.581012 8.803971 -7.125000 0.000000 0.000000 -4.593083 52.017754 -0.794941 11.014994 -1.738132 -2.521275 72.087695 3.389986 22.907454 -17.092890 31.187594 -5.665988 1.018111 -0.040012 -5.743344 -19.694530 20.379321 -7.503075 7.125000 0.000000 0.000000 4.972997 -8.369420 4.212527
0.517364 17.993248 -19.036022 -6.584215 -5.087312 2.019200 -0.768043 3.981282 2.441341 -8.369611 -7.176221 -30.752360 1.129014 10.043606 29.089995 -1.445271 8.093340 12.114217 0.099595 -1.006972 -2.783923 2.467688 -5.078205 5.512583 28.591609 11.244281 -1.429223 -0.522423 -5.116736 21.843356 1.644659 -6.192836 -1.617343 -0.021562 -0.947776 2.605142 5.442877 1.182216 6.750069 4.356630 2.335359 3.200663 -1.754753 0.992121 -8.878589 -5.492554 -3.771455 -17.062297 3.808486 -3.989632 13.054060 0.006761 -1.727567 7.781022 -7.159833 2.819617 -1.229264 -82.407073 5.059525 15.967208 11.246612 -19.291122 -1.976365 -0.388964 -0.806094 -6.122980 23.406999 19.184841 8.586907 -7.125000 0.000000 0.000000 -4.610275 51.562631 -0.746312 11.006995 -1.719973 -2.510331 72.066085 3.758680 22.912001 -17.203832 31.308070 -5.725289 1.013652 -0.041575 -5.874804 -19.619664 20.445230 -7.496113 7.125000 0.000000 0.000000 5.029446 -8.307830 4.266940
